<?xml version="1.0" encoding="UTF-8"?>
<svg xmlns="http://www.w3.org/2000/svg" xmlns:xlink="http://www.w3.org/1999/xlink" viewBox="0 0 250 250" width="250px" height="250px">
<g id="surface85547149">
<path style=" stroke:none;fill-rule:nonzero;fill:rgb(94.509804%,31.764707%,100%);fill-opacity:1;" d="M 122.011719 45 C 89.003906 45 58.007812 47.5 41.503906 50.996094 C 30.507812 53.496094 20.996094 60.996094 19.003906 72.5 C 17.011719 84.492188 15 102.5 15 125 C 15 147.5 16.992188 165 19.492188 177.5 C 21.503906 188.496094 30.996094 196.503906 41.992188 199.003906 C 59.511719 202.5 89.492188 205 122.5 205 C 155.507812 205 185.488281 202.5 202.988281 199.003906 C 214.003906 196.503906 223.496094 189.003906 225.488281 177.5 C 227.5 165 230 147.011719 230.488281 124.511719 C 230.488281 102.011719 227.988281 84.003906 225.488281 71.503906 C 223.496094 60.507812 214.003906 52.5 202.988281 50 C 185.488281 47.5 155 45 122.011719 45 Z M 122.011719 55 C 158.007812 55 186.992188 57.988281 200.996094 60.488281 C 208.496094 62.5 214.492188 67.5 215.488281 74.003906 C 218.496094 90 220.488281 107.011719 220.488281 124.511719 C 220 145.996094 217.5 163.496094 215.488281 175.996094 C 214.003906 185.488281 204.003906 188.496094 200.996094 189.511719 C 182.988281 193.007812 152.988281 195.488281 122.988281 195.488281 C 92.988281 195.488281 62.5 193.496094 45 189.511719 C 37.5 187.5 31.503906 182.5 30.507812 175.996094 C 26.503906 161.992188 25 143.496094 25 125 C 25 101.992188 27.011719 85 29.003906 74.511719 C 30.507812 65 40.996094 61.992188 43.496094 60.996094 C 60 57.5 90.507812 55 122.011719 55 Z M 95 85 L 95 165 L 165 125 Z M 105 102.011719 L 145 125 L 105 147.988281 Z M 105 102.011719 "/>
</g>
</svg>
