<?xml version="1.0" encoding="UTF-8"?>
<svg xmlns="http://www.w3.org/2000/svg" xmlns:xlink="http://www.w3.org/1999/xlink" viewBox="0 0 250 250" width="250px" height="250px">
<g id="surface85412157">
<path style=" stroke:none;fill-rule:nonzero;fill:rgb(94.509804%,31.764707%,100%);fill-opacity:1;" d="M 125 9.953125 C 61.335938 9.953125 9.953125 61.335938 9.953125 125 C 9.953125 188.664062 61.335938 240.050781 125 240.050781 C 188.664062 240.050781 240.050781 188.664062 240.050781 125 C 240.050781 61.335938 188.664062 9.953125 125 9.953125 Z M 125 20.046875 C 183.253906 20.046875 229.949219 66.746094 229.949219 125 C 229.949219 183.253906 183.253906 229.949219 125 229.949219 C 66.746094 229.949219 20.046875 183.253906 20.046875 125 C 20.046875 66.746094 66.746094 20.046875 125 20.046875 Z M 109.667969 70 C 80.003906 70 57.683594 75.136719 56.589844 75.390625 L 56.582031 75.390625 L 56.582031 75.402344 C 48.578125 77.269531 43.53125 85.398438 45.390625 93.398438 C 47.25 101.40625 55.378906 106.441406 63.378906 104.609375 L 63.417969 104.609375 L 63.445312 104.597656 C 62.878906 104.738281 63.695312 104.539062 64.296875 104.414062 C 64.898438 104.289062 65.785156 104.113281 66.933594 103.894531 C 69.234375 103.464844 72.570312 102.882812 76.726562 102.304688 C 85.042969 101.152344 96.628906 100 109.667969 100 L 109.980469 100 C 131.546875 100.03125 162.53125 103.339844 187.402344 117.941406 L 187.410156 117.941406 L 187.410156 117.949219 C 189.773438 119.328125 192.40625 120 194.988281 120 C 200.136719 120 205.164062 117.3125 207.9375 112.589844 C 212.101562 105.5 209.691406 96.226562 202.597656 92.0625 C 171.382812 73.734375 135.042969 70.035156 110.019531 70 Z M 109.667969 80 L 110.019531 80 C 134.042969 80.035156 168.757812 83.792969 197.527344 100.683594 C 199.96875 102.117188 200.742188 105.097656 199.316406 107.527344 C 198.363281 109.152344 196.703125 110 194.988281 110 C 194.140625 110 193.292969 109.789062 192.46875 109.316406 L 192.449219 109.308594 C 165.066406 93.238281 132.519531 90.03125 109.988281 90 L 109.667969 90 C 96.042969 90 84.03125 91.199219 75.359375 92.402344 C 71.027344 93.003906 67.519531 93.601562 65.078125 94.0625 C 63.855469 94.292969 62.902344 94.488281 62.234375 94.628906 C 61.609375 94.761719 61.65625 94.742188 61.152344 94.863281 C 58.375 95.5 55.765625 93.882812 55.125 91.132812 C 54.488281 88.386719 56.105469 85.78125 58.847656 85.136719 C 59.609375 84.960938 81.160156 80 109.667969 80 Z M 109.960938 110.011719 C 97.429688 110.113281 86.609375 111.285156 78.710938 112.488281 C 70.8125 113.695312 66.324219 114.785156 64.882812 115.195312 C 57.726562 117.222656 53.484375 124.808594 55.519531 131.972656 C 57.554688 139.144531 65.140625 143.363281 72.296875 141.328125 L 72.324219 141.316406 L 72.34375 141.316406 C 72.472656 141.289062 72.675781 141.242188 72.941406 141.179688 C 73.464844 141.0625 74.242188 140.902344 75.246094 140.703125 C 77.246094 140.300781 80.128906 139.757812 83.703125 139.21875 C 90.84375 138.140625 100.710938 137.050781 111.613281 136.953125 C 130.925781 136.78125 152.839844 139.621094 174.21875 152.9375 C 176.449219 154.339844 178.964844 155.007812 181.40625 155.007812 C 185.933594 155.007812 190.390625 152.714844 192.949219 148.613281 C 196.890625 142.292969 194.925781 133.828125 188.605469 129.890625 C 161.679688 113.117188 132.804688 109.820312 109.960938 110.007812 Z M 110.050781 120 C 131.855469 119.820312 158.625 122.992188 183.320312 138.378906 C 185.046875 139.453125 185.542969 141.589844 184.464844 143.320312 C 183.761719 144.441406 182.609375 145.011719 181.40625 145.011719 C 180.75 145.011719 180.121094 144.84375 179.53125 144.472656 L 179.523438 144.464844 C 156.066406 129.847656 131.902344 126.773438 111.523438 126.953125 C 100.011719 127.054688 89.703125 128.203125 82.207031 129.335938 C 78.457031 129.902344 75.417969 130.46875 73.273438 130.898438 C 72.199219 131.113281 71.351562 131.292969 70.753906 131.425781 C 70.453125 131.492188 70.214844 131.550781 70.039062 131.59375 C 69.863281 131.632812 70.140625 131.542969 69.511719 131.730469 L 69.5625 131.710938 C 67.644531 132.253906 65.6875 131.175781 65.136719 129.238281 C 64.578125 127.273438 65.648438 125.367188 67.609375 124.816406 L 67.617188 124.816406 C 67.558594 124.832031 72.703125 123.519531 80.214844 122.375 C 87.726562 121.226562 98.09375 120.101562 110.050781 120 Z M 112.5 145.011719 C 90.707031 145.015625 74.570312 150.3125 73.542969 150.65625 C 67.050781 152.816406 63.480469 159.972656 65.644531 166.464844 C 67.808594 172.960938 74.964844 176.5625 81.472656 174.355469 L 81.394531 174.386719 C 81.898438 174.222656 82.195312 174.117188 83.710938 173.710938 C 85.226562 173.304688 87.460938 172.757812 90.246094 172.207031 C 95.8125 171.109375 103.625 170.011719 112.5 170.011719 C 134.183594 170.003906 148.996094 175.199219 160.566406 182.910156 L 160.566406 182.902344 C 162.683594 184.316406 165.117188 185.011719 167.492188 185.011719 C 171.523438 185.011719 175.515625 183.015625 177.902344 179.433594 C 181.691406 173.742188 180.125 165.910156 174.433594 162.109375 C 156.207031 149.960938 135.699219 145 112.5 145.011719 Z M 112.5 155.011719 C 134.300781 155 152.472656 159.488281 168.886719 170.429688 C 170.078125 171.230469 170.375 172.703125 169.578125 173.894531 C 169.078125 174.652344 168.308594 175.011719 167.488281 175.011719 C 167.003906 175.011719 166.554688 174.882812 166.113281 174.589844 L 166.113281 174.582031 C 152.945312 165.804688 135.816406 160.003906 112.5 160.011719 C 102.804688 160.011719 94.378906 161.195312 88.308594 162.394531 C 85.277344 162.992188 82.824219 163.59375 81.113281 164.054688 C 79.402344 164.511719 77.910156 165 78.339844 164.863281 L 78.300781 164.875 L 78.261719 164.882812 C 76.929688 165.335938 75.582031 164.664062 75.125 163.300781 C 74.671875 161.9375 75.347656 160.589844 76.707031 160.136719 C 77.003906 160.039062 92.34375 155.015625 112.5 155.011719 Z M 112.5 155.011719 "/>
</g>
</svg>
